<svg id="visual" viewBox="0 0 900 450" width="900" height="450" xmlns="http://www.w3.org/2000/svg" xmlns:xlink="http://www.w3.org/1999/xlink" version="1.1"><rect x="0" y="0" width="900" height="450" fill="#0066FF"></rect><path d="M0 316L21.5 314.2C43 312.3 86 308.7 128.8 307.5C171.7 306.3 214.3 307.7 257.2 304.2C300 300.7 343 292.3 385.8 291.3C428.7 290.3 471.3 296.7 514.2 300.8C557 305 600 307 642.8 303.2C685.7 299.3 728.3 289.7 771.2 289.8C814 290 857 300 878.5 305L900 310L900 451L878.5 451C857 451 814 451 771.2 451C728.3 451 685.7 451 642.8 451C600 451 557 451 514.2 451C471.3 451 428.7 451 385.8 451C343 451 300 451 257.2 451C214.3 451 171.7 451 128.8 451C86 451 43 451 21.5 451L0 451Z" fill="#2e24c7"></path><path d="M0 323L21.5 322.2C43 321.3 86 319.7 128.8 321.7C171.7 323.7 214.3 329.3 257.2 336C300 342.7 343 350.3 385.8 345.8C428.7 341.3 471.3 324.7 514.2 315.7C557 306.7 600 305.3 642.8 311.3C685.7 317.3 728.3 330.7 771.2 329.2C814 327.7 857 311.3 878.5 303.2L900 295L900 451L878.5 451C857 451 814 451 771.2 451C728.3 451 685.7 451 642.8 451C600 451 557 451 514.2 451C471.3 451 428.7 451 385.8 451C343 451 300 451 257.2 451C214.3 451 171.7 451 128.8 451C86 451 43 451 21.5 451L0 451Z" fill="#f74445"></path><path d="M0 364L21.5 359.8C43 355.7 86 347.3 128.8 347C171.7 346.7 214.3 354.3 257.2 355.7C300 357 343 352 385.8 347.5C428.7 343 471.3 339 514.2 344.8C557 350.7 600 366.3 642.8 370C685.7 373.7 728.3 365.3 771.2 365C814 364.7 857 372.3 878.5 376.2L900 380L900 451L878.5 451C857 451 814 451 771.2 451C728.3 451 685.7 451 642.8 451C600 451 557 451 514.2 451C471.3 451 428.7 451 385.8 451C343 451 300 451 257.2 451C214.3 451 171.7 451 128.8 451C86 451 43 451 21.5 451L0 451Z" fill="#dfa726"></path><path d="M0 365L21.5 367.7C43 370.3 86 375.7 128.8 382.7C171.7 389.7 214.3 398.3 257.2 397.5C300 396.7 343 386.3 385.8 383C428.7 379.7 471.3 383.3 514.2 384.2C557 385 600 383 642.8 382.3C685.7 381.7 728.3 382.3 771.2 379.5C814 376.7 857 370.3 878.5 367.2L900 364L900 451L878.5 451C857 451 814 451 771.2 451C728.3 451 685.7 451 642.8 451C600 451 557 451 514.2 451C471.3 451 428.7 451 385.8 451C343 451 300 451 257.2 451C214.3 451 171.7 451 128.8 451C86 451 43 451 21.5 451L0 451Z" fill="#f74445"></path><path d="M0 397L21.5 398.5C43 400 86 403 128.8 407.7C171.7 412.3 214.3 418.7 257.2 417.7C300 416.7 343 408.3 385.8 404.8C428.7 401.3 471.3 402.7 514.2 406.7C557 410.7 600 417.3 642.8 419.2C685.7 421 728.3 418 771.2 418.5C814 419 857 423 878.5 425L900 427L900 451L878.5 451C857 451 814 451 771.2 451C728.3 451 685.7 451 642.8 451C600 451 557 451 514.2 451C471.3 451 428.7 451 385.8 451C343 451 300 451 257.2 451C214.3 451 171.7 451 128.8 451C86 451 43 451 21.5 451L0 451Z" fill="#2e24c7"></path></svg>