<svg id="visual" viewBox="0 0 900 600" width="900" height="600" xmlns="http://www.w3.org/2000/svg" xmlns:xlink="http://www.w3.org/1999/xlink" version="1.1"><rect x="0" y="0" width="900" height="600" fill="#002233"></rect><path d="M0 400L21.5 411C43 422 86 444 128.8 464.2C171.7 484.3 214.3 502.7 257.2 511.2C300 519.7 343 518.3 385.8 509.8C428.7 501.3 471.3 485.7 514.2 482C557 478.3 600 486.7 642.8 490.8C685.7 495 728.3 495 771.2 485C814 475 857 455 878.5 445L900 435L900 601L878.5 601C857 601 814 601 771.2 601C728.3 601 685.7 601 642.8 601C600 601 557 601 514.2 601C471.3 601 428.7 601 385.8 601C343 601 300 601 257.2 601C214.3 601 171.7 601 128.8 601C86 601 43 601 21.5 601L0 601Z" fill="#0066FF" stroke-linecap="round" stroke-linejoin="miter"></path></svg>